<svg width="423" height="435" viewBox="0 0 423 435" fill="none" xmlns="http://www.w3.org/2000/svg">
<circle cx="237.39" cy="111.625" r="111.627" fill="#166DDC"/>
<circle cx="211.179" cy="224.029" r="210.851" fill="#166DDC"/>
<path d="M65.5831 198.865C59.5123 186.196 64.7523 171.072 76.1496 164.421C87.7732 157.637 102.578 160.615 111.103 171.537C117.75 180.053 118.132 192.917 112.013 202.16C105.517 211.971 93.806 216.252 82.235 213.023C74.6106 210.896 69.229 206.087 65.5831 198.865ZM77.3823 165.994C76.7244 166.41 76.0459 166.796 75.4116 167.246C65.6603 174.151 62.0075 186.892 67.2673 197.774C73.2912 210.237 83.4121 213.681 94.7394 211.675C105.391 209.788 111.932 202.493 114.076 191.992C116.074 182.202 112.636 173.811 104.743 167.833C96.4083 161.521 87.2291 160.718 77.3823 165.994Z" fill="#E5EBFF"/>
<path d="M156.032 152.11C145.965 166.518 124.779 163.701 118.594 148.142C114.314 137.377 120.23 124.549 131.607 120.615C142.719 116.772 155.39 123.306 158.521 134.322C160.303 140.594 159.553 146.393 156.032 152.11ZM151.085 154.945C158.793 147.065 159.686 136.87 153.384 128.703C147.622 121.236 137.011 119.029 129.137 123.66C118.977 129.634 116.113 141.652 122.394 151.268C128.492 160.605 142.128 162.885 151.085 154.945Z" fill="#E5EBFF"/>
<path d="M211.63 92.7923C210.375 95.0377 209.218 97.0431 208.086 99.0055C208.603 101.052 211.231 100.637 212.196 103.087C208.972 102.996 206.881 101.66 204.844 99.5626C213.946 88.8145 213.394 78.4493 203.412 68.458C210.605 68.5049 215.2 82.4919 211.63 92.7923Z" fill="#E5EBFF"/>
<path d="M230.026 108.444C231.084 109.401 230.314 109.902 229.71 110.348C223.896 114.648 217.304 116.705 210.133 117.036C209.703 117.056 209.234 116.964 208.843 116.79C208.587 116.675 208.438 116.319 207.522 115.165C216.21 115.582 223.287 112.773 230.026 108.444Z" fill="#E5EBFF"/>
<path d="M201.197 86.5807C199.909 89.0208 198.12 89.8225 195.891 88.5358C194.303 87.6192 193.715 86.0143 194.448 84.227C195.185 82.4339 196.72 81.7546 198.511 82.192C200.57 82.6946 201.762 84.0168 201.197 86.5807Z" fill="#E5EBFF"/>
<path d="M226.329 85.7465C224.093 85.3323 222.947 84.1694 222.856 82.1268C222.796 80.7894 223.424 79.7615 224.641 79.2241C226.735 78.2994 228.565 78.5995 229.664 80.784C230.753 82.9501 229.635 84.6865 226.329 85.7465Z" fill="#E5EBFF"/>
<path d="M129.894 260.792C129.592 262.424 128.115 262.703 127.783 261.845C126.697 259.038 124.469 259.359 122.298 259.198C121.601 259.146 121.032 258.799 120.917 257.927C121.046 256.802 122.025 256.588 122.864 256.619C126.13 256.739 126.408 254.748 126.174 252.252C125.665 246.835 125.131 241.419 124.735 235.993C124.549 233.433 123.449 232.684 121.06 233.496C119.954 233.873 118.489 234.607 118.062 232.779C117.642 230.977 119.421 231.033 120.46 230.687C122.324 230.067 124.09 229.515 124.09 227.04C124.091 226.311 124.653 225.858 125.419 225.817C126.187 225.776 126.748 226.159 126.87 226.896C127.138 228.517 128.124 228.736 129.536 228.544C131.126 228.327 131.483 227.317 131.507 225.966C131.527 224.813 132.013 223.986 133.274 224.031C134.444 224.073 134.691 225.08 134.706 225.95C134.746 228.27 136.068 228.929 138.125 229.081C139.202 229.16 140.282 229.616 141.297 230.05C146.494 232.273 147.19 236.709 142.961 240.483C142.236 241.129 141.48 241.74 140.703 242.397C141.694 243.871 143.293 243.897 144.487 244.618C149.373 247.569 149.401 253.236 144.5 256.18C142.568 257.341 140.383 257.814 138.258 258.449C137.219 258.76 136.183 258.873 135.798 260.298C135.223 262.427 134.084 261.947 133.034 260.557C131.966 259.141 130.936 258.511 129.894 260.792ZM143.03 253.791C145.94 250.696 145.667 248.535 141.984 246.94C137.82 245.137 133.471 245.031 128.788 245.736C128.987 248.536 129.126 251.057 129.358 253.57C129.54 255.535 130.597 256.442 132.674 256.394C136.171 256.313 139.463 255.526 143.03 253.791ZM138.18 232.046C135.588 231.248 132.935 231.228 130.273 231.487C128.649 231.644 127.766 232.386 127.649 234.24C127.133 242.442 128.624 243.611 136.31 240.761C137.241 240.415 138.182 240.042 139.03 239.533C140.638 238.568 142.598 237.614 142.47 235.444C142.349 233.374 140.375 232.797 138.18 232.046Z" fill="#E5EBFF"/>
<path d="M235.065 59.3143C235.213 55.5882 233.464 53.4908 230.434 52.0663C228.14 50.9879 225.658 50.1232 223.879 48.187C222.257 46.421 221.499 44.4937 223.451 42.1396C223.37 47.0976 227.06 48.3922 230.383 49.8566C234.365 51.6116 237.028 54.1535 237.149 58.8065C237.209 61.1609 238.766 62.1009 240.969 61.9916C242.85 61.8983 244.723 61.5601 246.602 61.5333C249.389 61.4937 251.312 62.7878 251.795 65.6591C252.119 67.5894 252.241 69.5538 252.492 71.8608C250.156 71.527 250.123 69.7754 249.881 68.2678C249.076 63.238 249.094 63.2351 244.001 63.6325C237.877 64.1105 236.622 63.5382 235.065 59.3143Z" fill="#E5EBFF"/>
<path d="M185.272 69.2554C187.57 66.7424 187.654 63.8512 187.624 60.9375C187.591 57.6845 187.719 54.4368 189.57 51.6188C190.984 49.4666 192.796 47.8711 195.637 48.5612C195.827 49.7008 195.207 49.8529 194.715 50.023C191.276 51.2122 190.1 53.9086 189.793 57.2393C189.57 59.6672 189.778 62.0946 189.43 64.5433C188.852 68.608 186.876 71.4928 183.02 72.6601C179.265 73.7968 177.685 76.3419 177.166 79.9047C176.952 81.3706 176.408 82.7202 175.518 83.8632C174.581 85.0672 173.468 86.1497 170.837 85.349C174.878 83.0589 175.245 79.3374 176.265 75.9036C176.871 73.8588 178.376 72.5782 180.326 71.7631C181.958 71.0809 183.709 70.6272 185.272 69.2554Z" fill="#E5EBFF"/>
<path d="M95.2956 173.309C98.0743 177.687 100.715 181.866 103.623 186.467C98.8117 187.814 94.478 186.771 90.2639 187.396C94.3478 188.294 98.6658 187.037 103.34 188.561C98.5698 196.354 94.0958 203.663 89.6932 210.855C89.013 210.679 88.6962 210.694 88.6109 210.561C83.9504 203.281 79.3102 195.989 74.6653 188.699C74.0724 187.769 74.0172 186.851 74.6262 185.896C78.9802 179.067 83.3179 172.227 87.6953 165.413C87.968 164.989 88.5325 164.752 89.1879 164.256C91.6003 167.028 93.2518 170.159 95.2956 173.309ZM79.9609 183.091C79.6772 183.865 78.7291 184.438 79.3769 185.771C81.2119 185.771 83.1877 185.79 85.163 185.763C86.2612 185.749 87.2391 185.336 87.2616 184.108C87.3307 180.33 87.2868 176.55 87.2868 172.77C87.0377 172.723 86.7887 172.675 86.5397 172.627C84.4242 175.982 82.3088 179.337 79.9609 183.091ZM79.575 189.894C81.3103 194.283 84.1967 197.917 87.0078 202.452C88.5842 197.921 87.4543 194.322 87.2706 190.738C87.2255 189.859 86.4982 189.384 85.652 189.356C83.6896 189.292 81.7085 188.691 79.575 189.894Z" fill="#E5EBFF"/>
<path d="M135.387 136.445C136.943 138.209 138.985 138.61 140.755 139.504C147.126 142.719 147.596 149.507 141.711 153.462C140.975 153.956 140.201 154.348 139.786 155.224C138.957 156.97 137.896 156.933 136.822 155.447C135.401 153.482 132.635 153.376 131.26 151.364C130.727 150.583 129.613 149.86 130.611 148.813C131.572 147.804 132.385 148.579 133.144 149.308C133.702 149.844 134.28 150.388 134.933 150.792C137.427 152.332 140.707 151.571 142.269 149.141C143.683 146.941 142.994 144.354 140.333 142.605C138.952 141.698 137.37 141.101 135.888 140.345C133.089 138.918 131.389 136.659 131.363 133.497C131.337 130.48 133.149 128.436 135.856 127.521C137.483 126.971 138.044 124.33 139.856 125.096C141.697 125.875 143.19 127.492 144.8 128.785C145.224 129.125 145.569 129.592 145.863 130.056C146.391 130.892 147.119 131.82 145.987 132.675C144.914 133.485 144.145 132.832 143.516 131.916C142.111 129.868 140.304 128.929 137.8 129.801C134.592 130.918 133.755 132.985 135.387 136.445Z" fill="#E5EBFF"/>
<path fill-rule="evenodd" clip-rule="evenodd" d="M270.494 158.83C266.517 158.032 262.51 157.228 258.432 156.319C258.322 155.845 258.221 155.374 258.121 154.908C257.609 152.522 257.122 150.254 255.598 148.167C257.17 147.692 258.714 147.226 260.24 146.766C263.612 145.749 266.892 144.76 270.169 143.758C276.219 141.908 280.996 138.152 285.105 133.506C288.239 129.962 287.934 127.086 284.309 124.079C283.665 123.544 282.988 123.049 282.31 122.553C281.64 122.063 280.969 121.572 280.33 121.043C277.386 118.607 277.569 116.867 280.994 115.026C281.756 114.616 282.552 114.265 283.347 113.915C284.284 113.502 285.221 113.09 286.102 112.581C290.32 110.143 290.383 105.894 286.202 103.376C285.005 102.655 283.666 102.16 282.334 101.668C281.991 101.541 281.65 101.415 281.311 101.285C272.948 98.0786 272.541 96.9391 277.149 89.417C277.214 89.3115 277.282 89.2082 277.351 89.105C277.468 88.9298 277.585 88.7548 277.681 88.569C281.532 81.1204 282.193 73.7286 277.136 66.5202C273.444 61.2583 269.667 56.0459 265.894 50.8535C258.131 40.1705 246.588 34.6307 234.597 30.2194C227.054 27.4444 219.05 25.4851 211.022 27.319C187.281 32.7421 170.649 47.0922 160.599 69.0941C157.659 75.529 157.022 82.369 159.218 89.2871C159.848 91.2721 160.778 93.1162 162.778 93.8723C166.649 95.3361 166.537 96.5362 163.68 99.6165C163.482 99.8297 163.281 100.04 163.08 100.251C162.667 100.685 162.254 101.119 161.866 101.575C159.338 104.55 159.508 107.16 162.601 109.569C163.731 110.449 164.957 111.203 166.184 111.958C166.949 112.428 167.714 112.899 168.456 113.4C173.814 117.019 173.967 118.572 169.482 123.143C164.428 128.295 164.157 131.416 168.388 137.15C169.372 138.484 170.517 139.724 171.722 140.867C178.708 147.491 187.395 150.381 196.622 151.957C199.525 152.453 202.452 152.814 205.383 153.175C206.713 153.339 208.045 153.503 209.375 153.68L209.375 153.68C208.177 159.67 208.177 159.67 202.674 160.96C202.334 161.039 201.993 161.117 201.652 161.195C201.127 161.314 200.601 161.434 200.077 161.562C179.352 166.593 159.737 173.897 143.129 187.949C125.048 203.247 108.695 220.148 94.4134 239.03C83.8452 253.003 74.4231 267.689 68.187 284.167C64.2112 294.673 61.4572 305.511 64.0578 316.791C67.0559 329.795 75.9685 337.418 88.3978 340.823C98.6481 343.632 107.451 340.592 114.635 332.35L114.031 332.013C117.464 325.855 119.911 320.105 121.529 314.819C118.225 317.099 114.369 318.645 111.67 318.349C111.301 318.157 110.947 318 110.617 317.853C109.686 317.44 108.946 317.111 108.581 316.31C108.553 315.414 109.106 315.106 109.798 314.932C116.741 313.18 120.904 308.729 123.887 303.258C124.047 301.518 124.104 299.853 124.065 298.266C121.989 303.744 118.507 308.213 113.576 311.63C109.372 314.542 105.152 313.812 101.025 311.486C94.4052 307.755 91.3874 301.747 91.0862 294.434C90.932 290.688 91.2342 287.048 91.9685 283.519C89.6708 285.752 87.4483 288.544 85.3866 291.933C77.9734 306.406 71.5867 320.33 82.358 336.255C74.9987 333.123 70.3568 328.293 67.585 321.526C66.5301 318.951 67.3827 316.702 68.4244 314.49C72.1394 306.601 76.6844 299.254 82.8443 292.998C83.4403 292.438 83.9655 291.949 84.5172 291.438C86.942 287.448 89.6013 284.243 92.3668 281.783C93.5602 277.026 95.5482 272.477 98.2696 268.15C98.3426 268.034 98.4171 267.913 98.4932 267.79C99.3832 266.348 100.503 264.534 102.202 265.253C104.368 266.168 103.869 268.594 103.201 270.571C102.675 272.128 102.092 273.665 101.51 275.203C101.342 275.648 101.173 276.093 101.006 276.539C101.199 276.472 101.392 276.408 101.585 276.347C107.73 274.415 113.684 275.757 118.063 279.874C121.315 282.931 123.67 287.479 124.617 293.295C125.29 293.924 125.159 294.805 124.919 295.678C125.073 297.354 125.116 299.123 125.04 300.979C125.676 299.629 126.258 298.235 126.807 296.819C127.489 295.058 128.447 294.034 129.656 292.74C129.767 292.622 129.88 292.501 129.995 292.378C131.411 294.874 130.873 297.181 130.356 299.374C129.695 302.175 128.798 304.929 127.875 307.659C127.175 309.729 125.247 311.954 122.859 313.838C121.23 319.545 118.649 325.773 114.935 332.445C115.277 334.25 116.203 333.555 116.949 332.995C117.109 332.875 117.261 332.761 117.397 332.68C118.243 332.171 119.095 331.669 119.948 331.166C123.317 329.179 126.693 327.188 129.774 324.82C132.515 322.714 134.295 323.448 136.231 325.482C136.729 326.004 137.146 326.603 137.563 327.202C137.718 327.425 137.874 327.649 138.033 327.868C139.361 329.691 141.096 330.273 143.299 329.778C145.589 329.263 147.35 327.951 148.807 326.231C150.513 324.216 152.54 323.303 155.227 323.429C159.288 323.62 163.181 322.535 166.955 321.176C169.217 320.361 171.432 319.416 173.786 318.413C174.866 317.953 175.975 317.48 177.13 317.001C177.062 317.572 177.006 318.099 176.954 318.595C176.849 319.582 176.758 320.448 176.601 321.302C175.069 329.651 174.475 338.059 174.824 346.544C175.23 356.437 178.206 360.294 187.668 362.888C209.86 368.974 232.19 374.481 254.847 378.551C273.138 381.837 291.477 384.418 310.188 382.99C324.491 381.899 334.767 375.762 340.091 361.926C345.569 347.688 347.334 332.848 347.913 317.811C348.869 292.937 346.559 268.285 341.895 243.869C338.491 226.045 334.035 208.497 325.991 192.077C321.985 183.901 316.468 177.229 308.327 172.676C298.359 167.102 288.094 162.449 276.872 160.124C274.751 159.684 272.627 159.258 270.494 158.83ZM123.505 292.765C122.517 287.47 120.31 283.358 117.378 280.602C113.275 276.745 107.702 275.472 101.885 277.301C101.44 277.441 100.994 277.599 100.547 277.775C99.7116 280.058 98.9443 282.364 98.4257 284.757C97.6518 288.327 97.658 291.796 99.1507 295.201C99.8936 296.896 101.011 297.512 102.862 297.045C105.704 296.327 108.358 295.291 110.59 293.327C110.772 293.167 110.954 293.006 111.135 292.845C112.036 292.047 112.938 291.248 113.901 290.534C114.186 290.324 114.473 290.076 114.763 289.825C116.035 288.725 117.388 287.555 119.045 289.092C120.479 290.42 119.608 291.61 118.753 292.778C118.452 293.19 118.152 293.599 117.956 294.011C116.203 296.28 114.146 298.058 112.13 299.801C110.344 301.345 108.589 302.862 107.108 304.667C111.423 304.92 114.208 302.5 116.725 299.7C117.644 298.678 118.491 297.594 119.339 296.509C119.997 295.667 120.655 294.826 121.345 294.014C121.919 293.339 122.628 292.667 123.505 292.765ZM244.728 129.683C241.185 135.179 236.333 139.115 230.058 141.18C217.426 144.985 204.737 140.123 196.072 128.534C188.664 118.626 184.588 107.299 181.928 95.366C181.624 94.0005 181.829 92.8365 182.651 91.6037C183.019 91.0516 183.376 90.4941 183.732 89.9386C185.89 86.5662 188.001 83.2698 192.313 81.7083C195.389 80.5943 197.634 77.7822 199.214 74.7138C200.796 71.6388 201.157 68.5952 199.182 65.5543C198.517 64.531 198.126 63.4821 199.282 62.6101C203.093 59.7365 205.629 55.8557 207.787 51.6925C208.916 52.0977 209.328 52.9388 209.722 53.7429C209.861 54.0264 209.997 54.3054 210.162 54.5591C213.227 59.2686 217.145 62.5722 223.071 62.7733C224.415 62.8188 225.267 63.3135 225.562 64.8728C227.48 75.0186 232.475 78.2372 243.249 76.0918C244.489 79.2196 246.758 81.5248 250.105 82.6499C251.177 83.0104 251.617 83.9035 251.761 84.9559C253.898 100.57 253.659 115.828 244.728 129.683ZM137.273 272.992C123.649 274.988 113.537 269.408 106.333 257.994C100.14 245.677 101.56 232.761 109.85 223.326C117.89 214.176 130.585 210.694 142.052 214.495C149.964 217.117 156.216 222.87 159.702 230.056C160.414 221.873 161.505 214.044 162.413 208.727L163.398 208.896C162.427 214.582 161.245 223.162 160.548 231.96C162.317 236.341 163.09 241.171 162.639 246.1C162.363 249.109 161.592 252.036 160.408 254.786C160.748 257.738 161.292 260.249 162.084 262.125L161.163 262.514C160.472 260.878 159.97 258.821 159.621 256.47C155.294 265.033 146.921 271.579 137.273 272.992ZM211.68 52.98C208.42 47.4997 207.156 41.4525 206.579 35.2054C206.675 30.8706 207.636 29.8784 211.438 29.385C217.458 28.6037 223.425 28.7924 229.267 30.4984C242.714 34.4254 254.949 40.4753 264.146 51.4313C268.41 56.5112 270.991 62.3579 270.276 69.2152C269.3 78.5691 257.431 84.6785 249.138 80.2432C246.086 78.6107 245.461 75.8044 245.065 72.7913C232.896 77.5368 227.518 73.7163 228.109 61.0115C227.525 60.4912 226.848 60.603 226.202 60.7096C226.094 60.7275 225.986 60.7451 225.881 60.7597C219.212 61.6783 214.887 58.3709 211.68 52.98ZM295.398 167.908C296.07 168.201 296.742 168.495 297.411 168.795C298.976 170.508 297.855 170.888 296.982 171.184C296.768 171.256 296.569 171.323 296.428 171.404C291.275 174.351 286.1 177.262 280.925 180.173C276.216 182.822 271.507 185.47 266.813 188.147C261.39 191.24 255.973 194.273 249.754 195.522C239.439 197.594 229.545 196.381 220.366 191.244C211.583 186.328 202.895 181.243 194.206 176.159C191.283 174.449 188.359 172.738 185.432 171.034C185.295 170.954 185.153 170.879 185.009 170.802C184.177 170.361 183.265 169.877 182.791 168.28C183.988 167.905 185.192 167.545 186.397 167.183C189.145 166.36 191.901 165.534 194.593 164.538C198.629 163.046 202.222 163.574 206.087 165.379C213.836 168.995 221.713 172.278 230.322 173.542C242.895 175.388 254.894 173.732 266.447 168.546C266.921 168.333 267.405 168.133 267.889 167.932C269.164 167.404 270.442 166.874 271.56 166.113C278.047 161.696 284.493 162.666 291.028 165.913C292.462 166.624 293.93 167.266 295.398 167.908ZM192.578 79.3789C186.871 81.4992 183.328 85.8164 180.567 90.9645C176.691 94.6358 172.592 95.7805 167.946 94.205C161.433 91.9964 158.949 86.9671 160.014 79.3605C161.967 65.4178 169.933 55.0879 179.897 46.0157C186.261 40.2219 193.376 35.4796 201.595 32.6121C202.219 32.3945 202.859 32.2147 203.504 32.0753C203.619 32.0506 203.751 32.1109 203.943 32.198C204.051 32.2471 204.178 32.3048 204.331 32.3605C204.4 35.0348 204.9 37.6956 205.399 40.3506C205.812 42.55 206.225 44.7456 206.391 46.9417C206.823 52.6656 202.688 56.8998 198.554 60.6245C198.149 60.9892 197.683 61.2793 197.209 61.5746C196.352 62.1079 195.468 62.6585 194.865 63.6971C195.037 63.8971 195.212 64.0961 195.387 64.2954C197.066 66.2068 198.76 68.135 198.303 71.1308C197.87 73.9751 196.332 76.0189 194.329 77.858C194.155 78.0169 193.989 78.1957 193.822 78.3748C193.437 78.7882 193.051 79.203 192.578 79.3789ZM280.524 113.572C279.954 113.855 279.385 114.138 278.814 114.419C275.765 117.465 275.683 119.493 278.364 122.068C279.345 123.01 280.426 123.847 281.508 124.684C282.187 125.21 282.867 125.736 283.522 126.289C285.681 128.109 285.976 130.1 284.027 132.321C280.607 136.218 276.695 139.495 271.871 141.455C266.303 143.717 260.485 145.235 254.634 146.571C251.384 147.314 249.809 146.291 249.083 143.085C248.652 141.184 248.275 139.271 247.898 137.358C247.567 135.676 247.236 133.994 246.868 132.32C246.608 131.136 246.822 130.151 247.429 129.153C250.771 123.66 252.711 117.646 253.756 111.35C254.099 109.281 255.081 108.386 257.044 107.776C269.038 104.054 274.834 90.7675 269.562 79.2978C269.491 79.1435 269.408 78.9911 269.326 78.8394C268.98 78.203 268.639 77.576 269.201 76.8513C272.139 73.062 272.216 68.6277 271.926 63.9836C279.379 70.2737 280.355 78.9784 276.775 86.1578C276.24 87.2308 275.628 88.2658 275.017 89.3008C274.384 90.3725 273.751 91.4442 273.203 92.5577C271.166 96.696 272.026 99.201 276.218 101.221C277.597 101.886 279.016 102.466 280.435 103.047C281.795 103.603 283.155 104.16 284.479 104.79C285.851 105.442 287.383 106.242 287.268 108.16C287.162 109.911 285.984 110.904 284.497 111.62C283.167 112.26 281.846 112.916 280.524 113.572ZM165.6 100.559C165.691 100.451 165.782 100.343 165.874 100.236C167.411 97.2699 169.286 96.0621 172.29 96.5293C173.826 96.7682 175.268 96.2723 176.817 95.7392C177.651 95.4524 178.516 95.1549 179.443 94.9552C179.864 96.3473 180.269 97.7412 180.674 99.133C181.562 102.185 182.447 105.226 183.479 108.217C187.215 119.05 192.129 129.186 201.244 136.679C201.338 136.756 201.431 136.834 201.525 136.911C203.589 138.61 205.704 140.352 208.237 141.138C212.002 142.307 212.45 145.19 212.901 148.095C212.985 148.637 213.07 149.181 213.176 149.714C213.426 150.973 212.579 151.653 211.435 151.621C196.157 151.188 181.404 149.253 170.47 136.807C169.887 136.143 169.402 135.383 168.936 134.628C166.893 131.32 167.129 128.774 169.772 125.858C170.223 125.36 170.705 124.89 171.187 124.42C171.661 123.958 172.135 123.496 172.58 123.008C175.848 119.417 175.714 116.776 171.933 113.704C170.354 112.42 168.598 111.343 166.854 110.274C166.703 110.181 166.551 110.088 166.4 109.995C161.218 106.811 161.011 105.615 165.004 101.247C165.208 101.023 165.404 100.791 165.6 100.559ZM172.298 295.856C173.313 293.648 173.471 291.354 172.44 289.07C170.032 286.583 168.285 283.805 166.574 281.086C165.177 278.864 163.803 276.682 162.114 274.729C162.062 274.668 162.009 274.608 161.956 274.547C161.081 273.544 160.138 272.464 160.752 270.845C162.221 269.937 163.487 270.698 164.673 271.412L164.749 271.458C175.163 277.715 182.232 286.709 186.382 298.067C186.733 299.029 186.942 300.061 186.549 301.009C184.117 306.886 181.478 312.339 175.03 315.299C168.064 318.496 161.101 321.083 153.37 321.225C151.611 321.257 150.191 322.155 148.955 323.332C148.612 323.659 148.293 324.01 147.974 324.361C147.619 324.751 147.264 325.141 146.877 325.496C146.716 325.645 146.554 325.798 146.39 325.952C144.905 327.355 143.316 328.855 141.129 328.01C138.634 327.046 138.531 324.553 138.434 322.218L138.427 322.04C138.333 319.807 138.182 317.577 138.031 315.347C137.718 310.705 137.404 306.063 137.601 301.399C137.619 300.963 137.63 300.526 137.641 300.089C137.683 298.416 137.724 296.745 138.19 295.11C138.228 294.977 138.262 294.84 138.297 294.702C138.511 293.846 138.734 292.959 139.829 292.902C140.98 292.842 141.456 293.851 141.869 294.724L141.908 294.807C142.823 296.739 143.105 298.847 143.379 300.938C144.01 305.752 145.818 310.168 148.014 314.424C148.895 316.13 149.986 317.972 153.079 317.114C148.978 314.38 148.628 310.45 148.284 306.588C148.183 305.454 148.083 304.326 147.888 303.236C147.827 302.89 147.763 302.544 147.7 302.196C146.885 297.736 146.045 293.134 148.142 288.378C150.124 289.632 150.38 291.349 150.626 292.997C150.649 293.152 150.672 293.307 150.697 293.461C151.592 299.093 153.051 304.559 155.715 309.62C157.343 312.715 158.67 313.341 161.266 312.749C161.158 312.054 160.64 311.739 160.094 311.407C159.453 311.018 158.773 310.605 158.669 309.527C159.793 308.192 161.318 307.154 162.877 306.093C163.819 305.452 164.773 304.803 165.658 304.075C168.459 301.771 170.787 299.145 172.298 295.856ZM214.148 297.546C215.148 311.347 216.148 325.147 213.496 338.899C213.238 340.32 212.985 341.721 212.735 343.107C211.615 349.308 210.552 355.196 209.385 361.063C208.323 366.397 207.954 366.564 202.772 365.253C202.076 365.077 201.385 364.87 200.695 364.664C199.467 364.297 198.24 363.931 196.985 363.735C194.166 363.294 194.089 361.74 194.658 359.456C195.029 357.971 195.405 356.486 195.78 355.001C198.341 344.871 200.903 334.735 202.015 324.312C202.663 318.233 202.535 312.163 201.352 306.092C200.641 302.442 200.169 298.746 199.677 294.893C199.456 293.161 199.231 291.397 198.978 289.592C198.926 289.573 198.873 289.553 198.821 289.533L199.17 288.596C211.094 293.045 230.396 301.307 249.573 311.644C268.737 321.975 287.83 334.406 299.289 347.204L298.544 347.871C287.206 335.208 268.242 322.844 249.098 312.524C236.776 305.882 224.401 300.098 213.978 295.638C214.024 295.891 214.047 296.158 214.067 296.428C214.094 296.801 214.121 297.173 214.148 297.546ZM266.832 79.4843C270.526 82.963 270.702 89.7313 267.386 96.9551C264.431 102.122 260.683 105.434 254.959 106.472C254.443 104.705 254.513 103.036 254.58 101.412C254.609 100.717 254.637 100.03 254.62 99.3474C254.59 98.2118 254.587 97.0753 254.583 95.939C254.572 92.7409 254.562 89.544 253.978 86.3692C253.682 84.7593 254.049 83.3705 256.036 83.3224C260.078 83.2244 263.501 81.4079 266.832 79.4843ZM180.652 314.696L184.963 308.899C186.444 306.132 187.692 303.786 189.03 301.271C191.712 301.726 194.241 302.732 196.767 303.737C197.105 303.871 197.443 304.006 197.781 304.139C198.531 304.434 199.1 305.027 199.28 305.829C200.482 311.172 200.408 316.546 199.974 322.778C194.838 319.597 189.603 317.795 184.311 315.973C183.094 315.554 181.874 315.134 180.652 314.696ZM214.083 143.615C222.149 145.165 229.592 144.395 236.455 140.271C238.629 139.191 240.218 137.685 241.897 136.095C242.898 135.146 243.931 134.167 245.139 133.23C245.365 134.44 245.589 135.611 245.807 136.754C246.343 139.568 246.848 142.215 247.286 144.873C247.5 146.175 246.384 146.571 245.371 146.72C239.677 147.56 233.98 148.384 228.283 149.208C224.759 149.718 221.236 150.228 217.713 150.741C216.057 150.983 215.181 150.191 214.891 148.662C214.697 147.642 214.542 146.615 214.362 145.432C214.277 144.867 214.186 144.267 214.083 143.615ZM167.67 287.367C171.356 289.035 171.927 292.024 169.62 296.819C165.915 301.75 161.049 305.786 157.216 307.302C155.919 306.607 155.651 305.34 155.397 303.737C162.344 300.524 165.078 293.975 167.67 287.367ZM136.042 322.239C131.669 320.364 129.87 311.384 132.084 303.218C134.511 301.843 135.098 303.753 135.174 304.918C135.283 306.584 135.442 308.249 135.601 309.916C135.991 313.994 136.382 318.085 136.042 322.239ZM269.497 319.759C269.502 319.846 269.507 319.934 269.512 320.021L270.511 319.961C267.595 271.13 281.245 230.994 288.408 217.071L287.519 216.614C280.481 230.292 267.342 268.775 269.306 315.95V319.759L269.497 319.759Z" fill="#E5EBFF"/>
<path d="M93.0957 87.2003C93.1661 87.1265 93.2266 87.0734 93.2875 87.0731C95.2592 87.0687 97.2308 87.0694 99.2536 87.0694V90.1744H100.781V97.8736H91.5889V90.1852H93.0862C93.0862 89.175 93.0862 88.2105 93.0957 87.2003ZM94.6343 89.6933C94.6451 89.8442 94.6556 89.9951 94.6668 90.1493H97.6936V88.6598H94.6347V89.6936L94.6343 89.6933Z" fill="#E5EBFF"/>
<path d="M106.145 102.514H93.1162V99.4252H94.6129V100.947H106.968V90.1867H102.395V88.6582H108.504V102.513C107.733 102.513 106.966 102.513 106.145 102.513V102.514Z" fill="#E5EBFF"/>
<circle cx="100.047" cy="94.791" r="17.1012" stroke="#E5EBFF" stroke-width="1.7"/>
</svg>
